<svg
 xmlns="http://www.w3.org/2000/svg"
 xmlns:xlink="http://www.w3.org/1999/xlink"
 width="77px" height="33px">
<path fill-rule="evenodd"  fill="rgb(56, 167, 240)"
 d="M76.811,17.288 C76.577,17.435 72.747,19.790 72.469,19.954 C72.266,20.074 72.000,19.942 72.000,19.669 L72.000,32.000 C72.000,32.552 71.552,33.000 71.000,33.000 L1.000,33.000 C0.448,33.000 -0.000,32.552 -0.000,32.000 L-0.000,1.000 C-0.000,0.448 0.448,-0.000 1.000,-0.000 L71.000,-0.000 C71.552,-0.000 72.000,0.448 72.000,1.000 L72.000,14.337 C72.000,14.090 72.241,13.906 72.479,14.051 C72.670,14.167 76.485,16.510 76.811,16.711 C77.025,16.842 77.021,17.156 76.811,17.288 Z"/>
</svg>